<mxfile host="app.diagrams.net" agent="Mozilla/5.0 (Windows NT 10.0; Win64; x64) AppleWebKit/537.36 (KHTML, like Gecko) Chrome/127.0.0.0 Safari/537.36 Edg/127.0.0.0" version="24.7.7">
  <diagram name="Page-1" id="b98fa263-6416-c6ec-5b7d-78bf54ef71d0">
    <mxGraphModel dx="1426" dy="749" grid="1" gridSize="10" guides="1" tooltips="1" connect="1" arrows="1" fold="1" page="1" pageScale="1.5" pageWidth="1169" pageHeight="826" background="none" math="0" shadow="0">
      <root>
        <mxCell id="0" style=";html=1;" />
        <mxCell id="1" style=";html=1;" parent="0" />
        <mxCell id="303ed1de8c2c98b4-4" value="Online" style="whiteSpace=wrap;html=1;rounded=1;shadow=1;strokeWidth=1;fontSize=16;align=center;fillColor=#dae8fc;strokeColor=#6c8ebf;flipV=1;" parent="1" vertex="1">
          <mxGeometry x="630" y="335" width="490" height="45" as="geometry" />
        </mxCell>
        <mxCell id="303ed1de8c2c98b4-5" value="系统管理" style="whiteSpace=wrap;html=1;rounded=1;shadow=1;strokeWidth=1;fontSize=16;align=center;fillColor=#dae8fc;strokeColor=#6c8ebf;flipV=1;direction=east;glass=0;" parent="1" vertex="1">
          <mxGeometry x="440" y="415" width="275" height="40" as="geometry" />
        </mxCell>
        <mxCell id="303ed1de8c2c98b4-6" value="数据分析" style="whiteSpace=wrap;html=1;rounded=1;shadow=1;strokeWidth=1;fontSize=16;align=center;fillColor=#dae8fc;strokeColor=#6c8ebf;flipV=1;direction=east;glass=0;" parent="1" vertex="1">
          <mxGeometry x="755" y="415" width="275" height="40" as="geometry" />
        </mxCell>
        <mxCell id="303ed1de8c2c98b4-7" value="首页" style="whiteSpace=wrap;html=1;rounded=1;shadow=1;strokeWidth=1;fontSize=16;align=center;fillColor=#dae8fc;strokeColor=#6c8ebf;flipV=1;direction=east;glass=0;" parent="1" vertex="1">
          <mxGeometry x="210" y="415" width="183" height="45" as="geometry" />
        </mxCell>
        <mxCell id="303ed1de8c2c98b4-8" value="资料管理" style="whiteSpace=wrap;html=1;rounded=1;shadow=1;strokeWidth=1;fontSize=16;align=center;fillColor=#dae8fc;strokeColor=#6c8ebf;flipV=1;direction=east;glass=0;" parent="1" vertex="1">
          <mxGeometry x="1057" y="415" width="275" height="40" as="geometry" />
        </mxCell>
        <mxCell id="303ed1de8c2c98b4-10" value="角色管理" style="whiteSpace=wrap;html=1;rounded=1;shadow=1;strokeWidth=1;fontSize=16;align=center;fillColor=#f5f5f5;strokeColor=default;flipV=1;direction=east;glass=0;" parent="1" vertex="1">
          <mxGeometry x="440" y="485" width="125" height="80" as="geometry" />
        </mxCell>
        <mxCell id="303ed1de8c2c98b4-12" value="账号管理" style="whiteSpace=wrap;html=1;rounded=1;shadow=1;strokeWidth=1;fontSize=16;align=center;fillColor=#f5f5f5;strokeColor=default;flipV=1;direction=east;glass=0;" parent="1" vertex="1">
          <mxGeometry x="590" y="485" width="125" height="80" as="geometry" />
        </mxCell>
        <mxCell id="303ed1de8c2c98b4-13" value="下载报告" style="whiteSpace=wrap;html=1;rounded=1;shadow=1;strokeWidth=1;fontSize=16;align=center;fillColor=#f5f5f5;strokeColor=default;flipV=1;direction=east;glass=0;" parent="1" vertex="1">
          <mxGeometry x="755" y="485" width="125" height="80" as="geometry" />
        </mxCell>
        <mxCell id="303ed1de8c2c98b4-15" value="委托订单统计" style="whiteSpace=wrap;html=1;rounded=1;shadow=1;strokeWidth=1;fontSize=16;align=center;fillColor=#f5f5f5;strokeColor=default;flipV=1;direction=east;glass=0;" parent="1" vertex="1">
          <mxGeometry x="118" y="485" width="125" height="80" as="geometry" />
        </mxCell>
        <mxCell id="MWZoKfzoqc7VNYT3qYLC-18" style="edgeStyle=orthogonalEdgeStyle;rounded=0;orthogonalLoop=1;jettySize=auto;html=1;" edge="1" parent="1" source="303ed1de8c2c98b4-18" target="303ed1de8c2c98b4-39">
          <mxGeometry relative="1" as="geometry" />
        </mxCell>
        <mxCell id="MWZoKfzoqc7VNYT3qYLC-20" style="edgeStyle=orthogonalEdgeStyle;rounded=0;orthogonalLoop=1;jettySize=auto;html=1;entryX=0;entryY=0.5;entryDx=0;entryDy=0;" edge="1" parent="1" source="303ed1de8c2c98b4-18" target="303ed1de8c2c98b4-49">
          <mxGeometry relative="1" as="geometry" />
        </mxCell>
        <mxCell id="MWZoKfzoqc7VNYT3qYLC-21" style="edgeStyle=orthogonalEdgeStyle;rounded=0;orthogonalLoop=1;jettySize=auto;html=1;entryX=0;entryY=0.5;entryDx=0;entryDy=0;" edge="1" parent="1" source="303ed1de8c2c98b4-18" target="303ed1de8c2c98b4-19">
          <mxGeometry relative="1" as="geometry" />
        </mxCell>
        <mxCell id="MWZoKfzoqc7VNYT3qYLC-23" style="edgeStyle=orthogonalEdgeStyle;rounded=0;orthogonalLoop=1;jettySize=auto;html=1;" edge="1" parent="1" source="303ed1de8c2c98b4-18" target="303ed1de8c2c98b4-29">
          <mxGeometry relative="1" as="geometry" />
        </mxCell>
        <mxCell id="303ed1de8c2c98b4-18" value="账号中心" style="whiteSpace=wrap;html=1;rounded=1;shadow=1;strokeWidth=1;fontSize=16;align=center;fillColor=#f5f5f5;strokeColor=default;flipV=1;direction=east;glass=0;" parent="1" vertex="1">
          <mxGeometry x="1207" y="485" width="125" height="80" as="geometry" />
        </mxCell>
        <mxCell id="303ed1de8c2c98b4-19" value="个人信息" style="whiteSpace=wrap;html=1;rounded=1;shadow=1;strokeWidth=1;fontSize=16;align=center;fillColor=#f5f5f5;strokeColor=default;flipV=1;direction=east;glass=0;" parent="1" vertex="1">
          <mxGeometry x="1402.5" y="399" width="87.5" height="41" as="geometry" />
        </mxCell>
        <mxCell id="MWZoKfzoqc7VNYT3qYLC-2" value="" style="edgeStyle=orthogonalEdgeStyle;rounded=0;orthogonalLoop=1;jettySize=auto;html=1;" edge="1" parent="1" source="303ed1de8c2c98b4-23" target="MWZoKfzoqc7VNYT3qYLC-1">
          <mxGeometry relative="1" as="geometry" />
        </mxCell>
        <mxCell id="MWZoKfzoqc7VNYT3qYLC-4" value="" style="edgeStyle=orthogonalEdgeStyle;rounded=0;orthogonalLoop=1;jettySize=auto;html=1;" edge="1" parent="1" source="303ed1de8c2c98b4-23" target="MWZoKfzoqc7VNYT3qYLC-1">
          <mxGeometry relative="1" as="geometry" />
        </mxCell>
        <mxCell id="MWZoKfzoqc7VNYT3qYLC-5" value="" style="edgeStyle=orthogonalEdgeStyle;rounded=0;orthogonalLoop=1;jettySize=auto;html=1;" edge="1" parent="1" source="303ed1de8c2c98b4-23" target="MWZoKfzoqc7VNYT3qYLC-1">
          <mxGeometry relative="1" as="geometry" />
        </mxCell>
        <mxCell id="MWZoKfzoqc7VNYT3qYLC-7" style="edgeStyle=orthogonalEdgeStyle;rounded=0;orthogonalLoop=1;jettySize=auto;html=1;" edge="1" parent="1" source="303ed1de8c2c98b4-23" target="MWZoKfzoqc7VNYT3qYLC-6">
          <mxGeometry relative="1" as="geometry" />
        </mxCell>
        <mxCell id="MWZoKfzoqc7VNYT3qYLC-11" style="edgeStyle=orthogonalEdgeStyle;rounded=0;orthogonalLoop=1;jettySize=auto;html=1;exitX=0.5;exitY=1;exitDx=0;exitDy=0;" edge="1" parent="1" source="303ed1de8c2c98b4-23" target="MWZoKfzoqc7VNYT3qYLC-9">
          <mxGeometry relative="1" as="geometry" />
        </mxCell>
        <mxCell id="MWZoKfzoqc7VNYT3qYLC-14" style="edgeStyle=orthogonalEdgeStyle;rounded=0;orthogonalLoop=1;jettySize=auto;html=1;exitX=0.5;exitY=1;exitDx=0;exitDy=0;" edge="1" parent="1" source="303ed1de8c2c98b4-23" target="MWZoKfzoqc7VNYT3qYLC-12">
          <mxGeometry relative="1" as="geometry" />
        </mxCell>
        <mxCell id="MWZoKfzoqc7VNYT3qYLC-15" style="edgeStyle=orthogonalEdgeStyle;rounded=0;orthogonalLoop=1;jettySize=auto;html=1;entryX=0.5;entryY=0;entryDx=0;entryDy=0;exitX=0.5;exitY=1;exitDx=0;exitDy=0;" edge="1" parent="1" source="303ed1de8c2c98b4-23" target="MWZoKfzoqc7VNYT3qYLC-13">
          <mxGeometry relative="1" as="geometry">
            <mxPoint x="820" y="725" as="sourcePoint" />
          </mxGeometry>
        </mxCell>
        <mxCell id="303ed1de8c2c98b4-23" value="各个报表" style="whiteSpace=wrap;html=1;rounded=1;shadow=1;strokeWidth=1;fontSize=16;align=center;fillColor=#f5f5f5;strokeColor=default;flipV=1;direction=east;glass=0;" parent="1" vertex="1">
          <mxGeometry x="755" y="595" width="125" height="80" as="geometry" />
        </mxCell>
        <mxCell id="303ed1de8c2c98b4-27" value="消息通知" style="whiteSpace=wrap;html=1;rounded=1;shadow=1;strokeWidth=1;fontSize=16;align=center;fillColor=#f5f5f5;strokeColor=default;flipV=1;direction=east;glass=0;" parent="1" vertex="1">
          <mxGeometry x="1050" y="550" width="125" height="80" as="geometry" />
        </mxCell>
        <mxCell id="303ed1de8c2c98b4-29" value="&lt;span&gt;合同信息&lt;/span&gt;" style="whiteSpace=wrap;html=1;rounded=1;shadow=1;strokeWidth=1;fontSize=16;align=center;fillColor=#f5f5f5;strokeColor=default;flipV=1;direction=east;glass=0;" parent="1" vertex="1">
          <mxGeometry x="1401" y="479" width="89" height="41" as="geometry" />
        </mxCell>
        <mxCell id="303ed1de8c2c98b4-39" value="&lt;span&gt;企业信息&lt;/span&gt;" style="whiteSpace=wrap;html=1;rounded=1;shadow=1;strokeWidth=1;fontSize=16;align=center;fillColor=#f5f5f5;strokeColor=default;flipV=1;direction=east;glass=0;" parent="1" vertex="1">
          <mxGeometry x="1401" y="561" width="89" height="39" as="geometry" />
        </mxCell>
        <mxCell id="303ed1de8c2c98b4-49" value="&lt;span&gt;修改密码&lt;/span&gt;" style="whiteSpace=wrap;html=1;rounded=1;shadow=1;strokeWidth=1;fontSize=16;align=center;fillColor=#f5f5f5;strokeColor=default;flipV=1;direction=east;glass=0;" parent="1" vertex="1">
          <mxGeometry x="1400" y="639" width="90" height="41" as="geometry" />
        </mxCell>
        <mxCell id="303ed1de8c2c98b4-80" style="edgeStyle=orthogonalEdgeStyle;html=1;startSize=6;endFill=0;endSize=6;strokeWidth=1;fontSize=16;rounded=0;endArrow=none;" parent="1" source="303ed1de8c2c98b4-4" target="303ed1de8c2c98b4-5" edge="1">
          <mxGeometry relative="1" as="geometry">
            <Array as="points">
              <mxPoint x="886" y="405" />
              <mxPoint x="578" y="405" />
            </Array>
          </mxGeometry>
        </mxCell>
        <mxCell id="303ed1de8c2c98b4-81" style="edgeStyle=elbowEdgeStyle;html=1;startSize=6;endFill=0;endSize=6;strokeWidth=1;fontSize=16;rounded=0;endArrow=none;" parent="1" source="303ed1de8c2c98b4-4" target="303ed1de8c2c98b4-6" edge="1">
          <mxGeometry relative="1" as="geometry">
            <Array as="points">
              <mxPoint x="885" y="400" />
            </Array>
          </mxGeometry>
        </mxCell>
        <mxCell id="303ed1de8c2c98b4-82" style="edgeStyle=orthogonalEdgeStyle;html=1;startSize=6;endFill=0;endSize=6;strokeWidth=1;fontSize=16;rounded=0;endArrow=none;exitX=0.5;exitY=1;" parent="1" source="303ed1de8c2c98b4-4" target="303ed1de8c2c98b4-7" edge="1">
          <mxGeometry relative="1" as="geometry">
            <Array as="points">
              <mxPoint x="885" y="405" />
              <mxPoint x="260" y="405" />
            </Array>
          </mxGeometry>
        </mxCell>
        <mxCell id="303ed1de8c2c98b4-83" style="edgeStyle=orthogonalEdgeStyle;html=1;startSize=6;endFill=0;endSize=6;strokeWidth=1;fontSize=16;rounded=0;endArrow=none;" parent="1" source="303ed1de8c2c98b4-4" target="303ed1de8c2c98b4-8" edge="1">
          <mxGeometry relative="1" as="geometry">
            <Array as="points">
              <mxPoint x="885" y="405" />
              <mxPoint x="1195" y="405" />
            </Array>
          </mxGeometry>
        </mxCell>
        <mxCell id="303ed1de8c2c98b4-85" style="edgeStyle=orthogonalEdgeStyle;html=1;startSize=6;endFill=0;endSize=6;strokeWidth=1;fontSize=16;rounded=0;entryX=1;entryY=0.5;endArrow=none;" parent="1" source="303ed1de8c2c98b4-5" target="303ed1de8c2c98b4-10" edge="1">
          <mxGeometry relative="1" as="geometry">
            <Array as="points">
              <mxPoint x="578" y="455" />
            </Array>
          </mxGeometry>
        </mxCell>
        <mxCell id="303ed1de8c2c98b4-89" style="edgeStyle=orthogonalEdgeStyle;html=1;startSize=6;endFill=0;endSize=6;strokeWidth=1;fontSize=16;rounded=0;entryX=0;entryY=0.5;endArrow=none;" parent="1" source="303ed1de8c2c98b4-5" target="303ed1de8c2c98b4-12" edge="1">
          <mxGeometry relative="1" as="geometry">
            <Array as="points">
              <mxPoint x="578" y="455" />
            </Array>
          </mxGeometry>
        </mxCell>
        <mxCell id="303ed1de8c2c98b4-92" style="edgeStyle=orthogonalEdgeStyle;html=1;startSize=6;endFill=0;endSize=6;strokeWidth=1;fontSize=16;rounded=0;endArrow=none;entryX=1;entryY=0.5;" parent="1" source="303ed1de8c2c98b4-6" target="303ed1de8c2c98b4-13" edge="1">
          <mxGeometry relative="1" as="geometry">
            <Array as="points">
              <mxPoint x="892" y="455" />
            </Array>
          </mxGeometry>
        </mxCell>
        <mxCell id="303ed1de8c2c98b4-93" style="edgeStyle=orthogonalEdgeStyle;html=1;startSize=6;endFill=0;endSize=6;strokeWidth=1;fontSize=16;rounded=0;endArrow=none;entryX=1;entryY=0.5;" parent="1" source="303ed1de8c2c98b4-6" target="303ed1de8c2c98b4-23" edge="1">
          <mxGeometry relative="1" as="geometry">
            <Array as="points">
              <mxPoint x="893" y="455" />
            </Array>
          </mxGeometry>
        </mxCell>
        <mxCell id="303ed1de8c2c98b4-99" style="edgeStyle=orthogonalEdgeStyle;html=1;startSize=6;endFill=0;endSize=6;strokeWidth=1;fontSize=16;rounded=0;endArrow=none;entryX=1;entryY=0.5;" parent="1" source="303ed1de8c2c98b4-7" target="303ed1de8c2c98b4-15" edge="1">
          <mxGeometry relative="1" as="geometry">
            <Array as="points">
              <mxPoint x="255" y="455" />
            </Array>
          </mxGeometry>
        </mxCell>
        <mxCell id="303ed1de8c2c98b4-104" style="edgeStyle=orthogonalEdgeStyle;html=1;startSize=6;endFill=0;endSize=6;strokeWidth=1;fontSize=16;rounded=0;endArrow=none;entryX=0;entryY=0.5;" parent="1" source="303ed1de8c2c98b4-8" target="303ed1de8c2c98b4-18" edge="1">
          <mxGeometry relative="1" as="geometry">
            <Array as="points">
              <mxPoint x="1195" y="455" />
            </Array>
          </mxGeometry>
        </mxCell>
        <mxCell id="MWZoKfzoqc7VNYT3qYLC-1" value="&lt;span style=&quot;font-size: 12px; text-align: left;&quot;&gt;年委托量&amp;nbsp; &lt;br&gt;委托套餐分别&lt;/span&gt;" style="whiteSpace=wrap;html=1;fontSize=16;fillColor=#f5f5f5;strokeColor=default;rounded=1;shadow=1;strokeWidth=1;flipV=1;direction=east;glass=0;" vertex="1" parent="1">
          <mxGeometry x="660" y="730" width="110" height="40" as="geometry" />
        </mxCell>
        <mxCell id="MWZoKfzoqc7VNYT3qYLC-6" value="&lt;span style=&quot;font-size: 12px; text-align: left;&quot;&gt;分线等级 &lt;br&gt;模块占比&lt;/span&gt;" style="whiteSpace=wrap;html=1;fontSize=16;fillColor=#f5f5f5;strokeColor=default;rounded=1;shadow=1;strokeWidth=1;flipV=1;direction=east;glass=0;" vertex="1" parent="1">
          <mxGeometry x="780" y="730" width="100" height="40" as="geometry" />
        </mxCell>
        <mxCell id="MWZoKfzoqc7VNYT3qYLC-8" value="&lt;span style=&quot;font-size: 12px; text-align: left;&quot;&gt;异常模块占比&lt;/span&gt;" style="whiteSpace=wrap;html=1;fontSize=16;fillColor=#f5f5f5;strokeColor=default;rounded=1;shadow=1;strokeWidth=1;flipV=1;direction=east;glass=0;" vertex="1" parent="1">
          <mxGeometry x="890" y="730" width="100" height="40" as="geometry" />
        </mxCell>
        <mxCell id="MWZoKfzoqc7VNYT3qYLC-9" value="&lt;span style=&quot;color: rgb(48, 49, 51); font-family: &amp;quot;Helvetica Neue&amp;quot;, Helvetica, &amp;quot;PingFang SC&amp;quot;, &amp;quot;Hiragino Sans GB&amp;quot;, &amp;quot;Microsoft YaHei&amp;quot;, Arial, sans-serif; font-size: 12px; text-align: left; text-wrap: nowrap;&quot;&gt;资料收集周期 &lt;br&gt;完成报告数量&lt;/span&gt;" style="whiteSpace=wrap;html=1;fontSize=16;fillColor=#f5f5f5;strokeColor=default;rounded=1;shadow=1;strokeWidth=1;flipV=1;direction=east;glass=0;" vertex="1" parent="1">
          <mxGeometry x="540" y="730" width="110" height="40" as="geometry" />
        </mxCell>
        <mxCell id="MWZoKfzoqc7VNYT3qYLC-10" style="edgeStyle=orthogonalEdgeStyle;rounded=0;orthogonalLoop=1;jettySize=auto;html=1;entryX=0.5;entryY=0;entryDx=0;entryDy=0;exitX=0.5;exitY=1;exitDx=0;exitDy=0;" edge="1" parent="1" source="303ed1de8c2c98b4-23" target="MWZoKfzoqc7VNYT3qYLC-8">
          <mxGeometry relative="1" as="geometry" />
        </mxCell>
        <mxCell id="MWZoKfzoqc7VNYT3qYLC-12" value="&lt;span style=&quot;font-size: 12px; text-align: left;&quot;&gt;&amp;nbsp; 年龄分布图、&lt;br&gt;性别分布图&lt;/span&gt;" style="whiteSpace=wrap;html=1;fontSize=16;fillColor=#f5f5f5;strokeColor=default;rounded=1;shadow=1;strokeWidth=1;flipV=1;direction=east;glass=0;" vertex="1" parent="1">
          <mxGeometry x="420" y="730" width="110" height="40" as="geometry" />
        </mxCell>
        <mxCell id="MWZoKfzoqc7VNYT3qYLC-13" value="&lt;span style=&quot;font-size: 12px; text-align: left;&quot;&gt;学历分布图 &lt;br&gt;&amp;nbsp;工作年限分布图&lt;/span&gt;" style="whiteSpace=wrap;html=1;fontSize=16;fillColor=#f5f5f5;strokeColor=#666666;rounded=1;shadow=1;strokeWidth=1;flipV=1;" vertex="1" parent="1">
          <mxGeometry x="300" y="730" width="110" height="40" as="geometry" />
        </mxCell>
        <mxCell id="MWZoKfzoqc7VNYT3qYLC-24" style="edgeStyle=orthogonalEdgeStyle;rounded=0;orthogonalLoop=1;jettySize=auto;html=1;entryX=1;entryY=0.625;entryDx=0;entryDy=0;entryPerimeter=0;" edge="1" parent="1" source="303ed1de8c2c98b4-8" target="303ed1de8c2c98b4-27">
          <mxGeometry relative="1" as="geometry" />
        </mxCell>
      </root>
    </mxGraphModel>
  </diagram>
</mxfile>
